<svg id="Layer_1" data-name="Layer 1" xmlns="http://www.w3.org/2000/svg" xmlns:xlink="http://www.w3.org/1999/xlink" viewBox="0 0 439.34 275.98"><defs><style>.cls-1{fill:none;}.cls-2{fill:#2a4365;}.cls-3{fill:#3182ce;}.cls-4{fill:#63b3ed;}.cls-5{clip-path:url(#clip-path);}.cls-6{fill:#231c46;}</style><clipPath id="clip-path" transform="translate(-201.27 -159.65)"><path class="cls-1" d="M390.83,361.43c-32.1-8.32-50.14-52.28-39.05-71.37s27-11.55,27-11.55c-16,1.12-21.25,19.28-21.25,19.28-5.07,20.74,18.46,57.64,53.33,42.27s21.19-56.93-3.69-74.39-34.21-40.13-34.21-40.13-7.47-16.21,4.26-34.6,25.25-13.61,25.25-13.61,12.06-16.78,34.47,1.27c0,0,7.13,5.57,10.17,8.19,0,0,4.41-1.56,6.82,1.34s-.14,6.1-.14,6.1,8.73,11.25-.09,16.08l-30.54-14.48,17.11,20.4S436.42,223,423,211.91c0,0-21.35-15.89-25-24.49,0,0-6.6-3.77-10.58,11.2s13.76,31.32,27.5,40.66c12.8,8.7,49.34,30.22,57.67,59.62S442.32,374.77,390.83,361.43Z"/></clipPath></defs><title>SVG</title><path class="cls-2" d="M228.65,400.66a6.31,6.31,0,0,0-2.71-4.71,10.52,10.52,0,0,0-6.19-1.68,11.8,11.8,0,0,0-4.59.81,6.81,6.81,0,0,0-2.93,2.19,5.32,5.32,0,0,0-1,3.16,4.72,4.72,0,0,0,.68,2.56,5.88,5.88,0,0,0,1.86,1.83,12.74,12.74,0,0,0,2.61,1.26,27.87,27.87,0,0,0,2.88.85l4.43,1.11a30.87,30.87,0,0,1,5.16,1.68,18.46,18.46,0,0,1,4.45,2.68,12,12,0,0,1,3.13,3.9,11.73,11.73,0,0,1,1.15,5.35,12.75,12.75,0,0,1-2.12,7.3,13.94,13.94,0,0,1-6.12,4.91,23.92,23.92,0,0,1-9.68,1.76,24.49,24.49,0,0,1-9.56-1.71,14.17,14.17,0,0,1-6.32-5,14.7,14.7,0,0,1-2.46-8h8.42a7.15,7.15,0,0,0,1.52,4.11,8,8,0,0,0,3.49,2.45,13.68,13.68,0,0,0,4.83.81,13.15,13.15,0,0,0,4.9-.84,7.8,7.8,0,0,0,3.31-2.35,5.64,5.64,0,0,0,1.22-3.54,4.56,4.56,0,0,0-1.08-3.06,8.14,8.14,0,0,0-3-2,30,30,0,0,0-4.44-1.46l-5.37-1.38a21.47,21.47,0,0,1-9.22-4.55,10.43,10.43,0,0,1-3.38-8.13,12.14,12.14,0,0,1,2.27-7.31,14.94,14.94,0,0,1,6.19-4.88,21.67,21.67,0,0,1,8.88-1.74,21,21,0,0,1,8.82,1.74,14.51,14.51,0,0,1,6,4.82,12.37,12.37,0,0,1,2.24,7.07Z" transform="translate(-201.27 -159.65)"/><path class="cls-2" d="M253.7,387.67v47.24h-8.56V387.67Z" transform="translate(-201.27 -159.65)"/><path class="cls-2" d="M263,387.67h10.47l14,34.23H288l14-34.23h10.47v47.24h-8.21V402.46h-.44l-13.06,32.32h-6.14l-13.06-32.38h-.44v32.52H263Z" transform="translate(-201.27 -159.65)"/><path class="cls-2" d="M351.64,387.67h8.56v30.86a16.6,16.6,0,0,1-2.39,8.93,16.22,16.22,0,0,1-6.7,6,24.69,24.69,0,0,1-20.18,0,16.13,16.13,0,0,1-6.69-6,16.66,16.66,0,0,1-2.38-8.93V387.67h8.56v30.15a10.5,10.5,0,0,0,1.3,5.26,9.23,9.23,0,0,0,3.68,3.61,12.83,12.83,0,0,0,11.27,0,9.15,9.15,0,0,0,3.68-3.61,10.58,10.58,0,0,0,1.29-5.26Z" transform="translate(-201.27 -159.65)"/><path class="cls-2" d="M369.52,434.91V387.67h8.56v40.07h20.81v7.17Z" transform="translate(-201.27 -159.65)"/><path class="cls-2" d="M414.13,434.91H405l16.63-47.24h10.56l16.65,47.24h-9.13l-12.62-37.55h-.37Zm.3-18.52h24.91v6.87H414.43Z" transform="translate(-201.27 -159.65)"/><path class="cls-2" d="M493.29,403.61h-8.63a10.86,10.86,0,0,0-1.36-3.77,10.19,10.19,0,0,0-2.47-2.8,10.48,10.48,0,0,0-3.36-1.74,13.51,13.51,0,0,0-4-.59,12.28,12.28,0,0,0-6.83,1.93,12.79,12.79,0,0,0-4.66,5.63,25.21,25.21,0,0,0,0,18.15,12.59,12.59,0,0,0,4.66,5.58,12.41,12.41,0,0,0,6.79,1.88,13.56,13.56,0,0,0,4-.57,10.84,10.84,0,0,0,3.34-1.67,10.14,10.14,0,0,0,2.51-2.72,10.42,10.42,0,0,0,1.42-3.69l8.63,0A18.68,18.68,0,0,1,487,430.8a19,19,0,0,1-6,3.51,22.36,22.36,0,0,1-7.68,1.26,21.47,21.47,0,0,1-11.12-2.88,20.12,20.12,0,0,1-7.7-8.33,31.6,31.6,0,0,1,0-26.12,20.29,20.29,0,0,1,7.73-8.31A21.39,21.39,0,0,1,473.29,387a23.5,23.5,0,0,1,7.33,1.11,18.89,18.89,0,0,1,6,3.24,17.64,17.64,0,0,1,4.37,5.21A19.64,19.64,0,0,1,493.29,403.61Z" transform="translate(-201.27 -159.65)"/><path class="cls-2" d="M501.16,434.91V387.67h17.72a20,20,0,0,1,9.15,1.89,13,13,0,0,1,5.61,5.29,16,16,0,0,1,1.9,7.92,15.48,15.48,0,0,1-1.93,7.88,12.76,12.76,0,0,1-5.66,5.14,20.94,20.94,0,0,1-9.18,1.81H506.14v-7.1H517.6a13.11,13.11,0,0,0,5.21-.89,6.19,6.19,0,0,0,3-2.61,8.42,8.42,0,0,0,1-4.23,8.74,8.74,0,0,0-1-4.3,6.39,6.39,0,0,0-3-2.72,12.6,12.6,0,0,0-5.24-.93h-7.84v40.09Zm24.4-21.41,11.7,21.41h-9.55l-11.49-21.41Z" transform="translate(-201.27 -159.65)"/><path class="cls-2" d="M573.19,387.67h8.56v30.86a16.59,16.59,0,0,1-2.39,8.93,16.21,16.21,0,0,1-6.7,6,24.69,24.69,0,0,1-20.18,0,16.13,16.13,0,0,1-6.69-6,16.66,16.66,0,0,1-2.38-8.93V387.67H552v30.15a10.5,10.5,0,0,0,1.3,5.26,9.23,9.23,0,0,0,3.68,3.61,12.83,12.83,0,0,0,11.27,0,9.14,9.14,0,0,0,3.68-3.61,10.58,10.58,0,0,0,1.29-5.26Z" transform="translate(-201.27 -159.65)"/><path class="cls-2" d="M591.07,387.67h10.47l14,34.23h.55l14-34.23h10.47v47.24H632.4V402.46H632l-13.06,32.32h-6.13l-13.06-32.38h-.44v32.52h-8.21Z" transform="translate(-201.27 -159.65)"/><ellipse class="cls-2" cx="210.83" cy="201.14" rx="72.33" ry="10.33"/><path class="cls-2" d="M453.39,209.47h0l-.34-.54-.32.2-1.72-.9c0-.17-.08-.33-.11-.5l-.63.11h0l-.63.11a18.9,18.9,0,0,0,.86,3.17l.27.74,3-1.85Z" transform="translate(-201.27 -159.65)"/><path class="cls-2" d="M448,206.93l-2.18-1c0-.11,0-.22,0-.33l-.64,0h0l-.64,0a7.85,7.85,0,0,0,1,3.42l.33.59.58-.36c.86-.54,1.76-1,2.67-1.51l-.58-1.14Z" transform="translate(-201.27 -159.65)"/><path class="cls-2" d="M443.48,204.73h0l-.28-.58-.48.26-2.18-.92c0-.14-.06-.27-.08-.41l-1.27.22a20.57,20.57,0,0,0,.89,3.42l.3.85.7-.56a14.77,14.77,0,0,1,2.68-1.69l-.28-.58Z" transform="translate(-201.27 -159.65)"/><path class="cls-2" d="M438.57,202.53h0l-.26-.58-.53.27-2.5-1-.21-.66-.38-.64-.67.34.36.52-.53.17,1.42,4.43.72-.56a14.52,14.52,0,0,1,2.85-1.71l-.26-.58Z" transform="translate(-201.27 -159.65)"/><path class="cls-2" d="M432.51,199.84l-2.17-.9c0-.21-.1-.42-.13-.64l-.11-.72-1,.28.16.58-.31,0a21.59,21.59,0,0,0,.88,3.37l.24.76.69-.4c.92-.53,1.86-1,2.81-1.48l-.55-1.16Z" transform="translate(-201.27 -159.65)"/><path class="cls-2" d="M383.77,240.34A19.52,19.52,0,0,0,371,252.57a.81.81,0,0,1-1.47.17c-1.69-2.93-3.7-5.74-6.76-7a10.77,10.77,0,0,0-8.84.54,13.73,13.73,0,0,0-7.32,11.26.78.78,0,0,1-1.4.46,21.58,21.58,0,0,0-12.26-7.22c-10-2.22-20.61,7.48-23.21,16.68a.68.68,0,0,1-1.29.08c-1.4-3.31-3.55-6.28-8-5.79-7,.76-12.26,8.58-14.72,14.49l0,.06a1.28,1.28,0,0,1-2.45-.43,32,32,0,0,1,3.53-15.16c3.23-6.48,8.18-12,13.46-16.91a136.57,136.57,0,0,1,36.43-24.5,4.52,4.52,0,0,1,1.88-.54,4.73,4.73,0,0,1,2.6,1.18c11.22,8.16,26.72,14.66,42.55,15.24C383.63,235.14,388.26,239,383.77,240.34Z" transform="translate(-201.27 -159.65)"/><path class="cls-2" d="M408.18,263.93h0l-.06-.6-.69.06-9.77-7,.05-.22-.58-.16h0l-.58-.16a35.18,35.18,0,0,0-1.25,8.14l0,.53.52.09a32.42,32.42,0,0,0,6.71.38c1.92-.07,3.83-.24,5.72-.42l-.06-.6Z" transform="translate(-201.27 -159.65)"/><polygon class="cls-2" points="217.59 114.64 217.59 114.64 217.59 114.63 217.54 114.03 216.97 114.08 210.39 108.3 210.45 107.92 209.26 107.72 207.89 116.14 217.65 115.24 217.59 114.64"/><path class="cls-2" d="M428,287.84l-.11-.59h0l-.11-.59-.26,0L422.39,279l.15-.34-.55-.25h0l-.55-.25-4,8.71.63.22a19.53,19.53,0,0,0,9.95.74Z" transform="translate(-201.27 -159.65)"/><path class="cls-2" d="M432.9,302.74l.09-.6-.31-.06-3.12-9.36.15-.1-.7-1a70.25,70.25,0,0,1-7.59,4.66l-1,.5,7.4,4.43a13.88,13.88,0,0,0,4.94,2.12l.09-.6h0Z" transform="translate(-201.27 -159.65)"/><path class="cls-2" d="M432.92,308.83l-.06-.6h0l-.06-.6-12.71,1.3,1.18.93c.5.39,2,2.08,3.6,3.87a83.94,83.94,0,0,0,5.77,6.12l.39-.46h0l.39-.46-.28-.25,1.61-9.83Z" transform="translate(-201.27 -159.65)"/><path class="cls-2" d="M369,281l0,.39-7.1,6-.66,0,0,.6h0l0,.6a78,78,0,0,1,9.26.9l.8.13-1.1-8.71Z" transform="translate(-201.27 -159.65)"/><path class="cls-2" d="M364.34,298.48l.5-.55-7.26-4.34-.62,1,.21.13-1.4,9.19-.43.27.31.52h0l.31.52A36.63,36.63,0,0,0,364.34,298.48Z" transform="translate(-201.27 -159.65)"/><path class="cls-2" d="M365.86,314.19l.4-1-1,.15a15.8,15.8,0,0,1-8-.89l-.44,1.13c.18.07.37.11.55.18l3.41,7.68-.21.34.51.33h0l.51.33A50.7,50.7,0,0,0,365.86,314.19Z" transform="translate(-201.27 -159.65)"/><path class="cls-2" d="M401.48,167.53l-2-1,.58,2.12c.88,3.19,1.86,6.41,2.91,9.56l1.9-.63-.09-.29,4.6-3.25.38.22.52-.85h0l.52-.85C407.8,170.76,404.65,169.06,401.48,167.53Z" transform="translate(-201.27 -159.65)"/><path class="cls-2" d="M416.57,159.65l-.76,2.06c-1.15,3.11-2.24,6.3-3.22,9.46l1,.3h0l1,.3.09-.29,5.64,0,.18.4,1.84-.78c-1.38-3.25-2.93-6.47-4.62-9.57Z" transform="translate(-201.27 -159.65)"/><path class="cls-2" d="M432.91,165.22l-.15-2.19-1.55,1.55c-2.34,2.35-4.65,4.79-6.87,7.26l.74.67h0l.74.67.2-.22,5.11,2.39c0,.15,0,.29,0,.44l2,.06C433.23,172.31,433.16,168.73,432.91,165.22Z" transform="translate(-201.27 -159.65)"/><path class="cls-3" d="M390.83,361.43c-32.1-8.32-50.14-52.28-39.05-71.37C360.05,275.8,371,276.39,376,277.6a.65.65,0,0,1,0,1.27c-13.89,2.84-18.51,18.91-18.51,18.91-5.07,20.74,18.46,57.64,53.33,42.27s21.19-56.93-3.69-74.39-34.21-40.13-34.21-40.13-7.47-16.21,4.26-34.6,25.25-13.61,25.25-13.61,12.06-16.78,34.47,1.27c0,0,7.13,5.57,10.17,8.19,0,0,4.41-1.56,6.82,1.34s-.14,6.1-.14,6.1,8.73,11.25-.09,16.08l-30.54-14.48L440,215.94a.48.48,0,0,1,0,.62c-1,1.21-5.43,4.91-17-4.64,0,0-21.35-15.89-25-24.49,0,0-6.6-3.77-10.58,11.2s13.76,31.32,27.5,40.66c12.8,8.7,49.34,30.22,57.67,59.62S442.32,374.77,390.83,361.43Z" transform="translate(-201.27 -159.65)"/><path class="cls-4" d="M453.23,347.08c22.27-23.29,2.84-70.27-34-94s-32.15-51-32.15-51l.53-3.45c-4,15,13.76,31.32,27.5,40.66,12.8,8.7,49.34,30.22,57.67,59.62,4,14.2-2.92,32.37-17,45.87" transform="translate(-201.27 -159.65)"/><path class="cls-3" d="M451.62,218c4.13-1,8.89.54,11,4.22,1.71,2.94,1.77,6.7,3.87,9.38a7.68,7.68,0,0,0,6.56,2.84.29.29,0,0,1,.24.48,9.16,9.16,0,0,1-6.11,2.87,4.88,4.88,0,0,0,2.82,3.24c1.32.68,2.79,1.08,4.05,1.86,3,1.84,4.32,5.42,5.2,8.8a14,14,0,0,1,.47,6.74.36.36,0,0,1-.71-.05,9.54,9.54,0,0,0-5.14-7.64c-3-1.44-6.51-1.24-9.48-2.65-3.93-1.87-6-6.11-7.88-10.05a10.07,10.07,0,0,0,.49,8.14.32.32,0,0,1-.49.38,11,11,0,0,1-3.67-6.4c-.28-1.63-.25-3.46-1.33-4.72-.89-1-2.32-1.41-3.52-2.06a8.09,8.09,0,0,1-2.25-11.77S447,219.16,451.62,218Z" transform="translate(-201.27 -159.65)"/><path class="cls-4" d="M451.78,221.92a4.88,4.88,0,0,1,5.3,2.19c.79,1.45.77,3.28,1.76,4.6a3.72,3.72,0,0,0,3.51,1.42,4.44,4.44,0,0,1-3.25,1.59,2.37,2.37,0,0,0,1.33,1.61c.63.35,1.34.56,1.94,1,1.42.93,2,2.69,2.41,4.34.32,1.39.53,3-.25,4.15a4.61,4.61,0,0,0-2.35-4.68c-1.42-.74-3.14-.68-4.57-1.41-1.88-1-2.86-3-3.69-5a4.87,4.87,0,0,0,.54,4.63,5.34,5.34,0,0,1-2.34-3.65,4.57,4.57,0,0,0-.58-2.31,5.49,5.49,0,0,0-1.68-1,3.93,3.93,0,0,1-.94-5.74A4.25,4.25,0,0,1,451.78,221.92Z" transform="translate(-201.27 -159.65)"/><g class="cls-5"><path class="cls-2" d="M453.67,348.41c.22-.83-1.53-2.12-2.13-2.66a7.56,7.56,0,0,0-2-1.36c-4-1.76-9,1.56-10.61,5.19a7.77,7.77,0,0,0,.94,7.84l.5-.41,12.94-8.21A.66.66,0,0,0,453.67,348.41Z" transform="translate(-201.27 -159.65)"/><path class="cls-2" d="M420.27,353.06a8.78,8.78,0,0,0-5.83-1.86c-3.21.26-4.52,3.23-4.65,6.1a13.86,13.86,0,0,0,.56,4.51,8.65,8.65,0,0,0,.75,1.94c.1.17.28.72.46.81.61.28.3-.19.77-.22l11.29-.78h.64c0-3.43-1.07-7.88-3.72-10.26Z" transform="translate(-201.27 -159.65)"/><path class="cls-2" d="M425,328.18l-.26.59h0l-12.36,10.33-.62.16a9.68,9.68,0,0,0,7.59,7,8.82,8.82,0,0,0,1.76.11,9.41,9.41,0,0,0,7.65-14.61A13.19,13.19,0,0,0,425,328.18Z" transform="translate(-201.27 -159.65)"/><path class="cls-2" d="M403.46,342.29l-12.1,1.17h0l-.63-.13a7.78,7.78,0,0,0,.06,3.39,7.58,7.58,0,0,0,7.2,5.74h.19a7.05,7.05,0,0,0,6.66-6.06A8.59,8.59,0,0,0,404,342Z" transform="translate(-201.27 -159.65)"/><path class="cls-2" d="M381.39,347a5.17,5.17,0,0,0-1.95-.17,5.55,5.55,0,0,0-1.57.48c-2.44,1.11-4.81,3.63-4.59,6.73l.64,0,11,5.88h0l.48.43a8.13,8.13,0,0,0-4-13.3Z" transform="translate(-201.27 -159.65)"/><path class="cls-2" d="M376.89,338.36l-.59-.26L364,325.6h0l-.42-.49c-2.61,2.22-3.94,6.71-2.89,9.79a10.85,10.85,0,0,0,6.9,6.54,10,10,0,0,0,3.45.52,7.72,7.72,0,0,0,1.72-.25A6.13,6.13,0,0,0,376.89,338.36Z" transform="translate(-201.27 -159.65)"/><path class="cls-2" d="M353.09,314.07a5.12,5.12,0,0,0-5.55.17l.37.52,4.62,12h0l.25.59h0l.25.59a6.77,6.77,0,0,0,4.06-6.2,10.24,10.24,0,0,0-1.27-4.38A8.08,8.08,0,0,0,353.09,314.07Z" transform="translate(-201.27 -159.65)"/></g><path class="cls-2" d="M404.2,232.27a2.72,2.72,0,0,1-.42,2.46,2.92,2.92,0,0,1-1,.86,2.35,2.35,0,0,1-1.25.32.41.41,0,0,1-.19-.76l0,0a4.73,4.73,0,0,0,.74-.52,4.41,4.41,0,0,0,.59-.63,4,4,0,0,0,.73-1.62v0a.38.38,0,0,1,.45-.29A.38.38,0,0,1,404.2,232.27Z" transform="translate(-201.27 -159.65)"/><path class="cls-2" d="M408.8,235.77a3.92,3.92,0,0,1-1.07,2.6,4.12,4.12,0,0,1-1.14.88,3.4,3.4,0,0,1-1.37.4.41.41,0,0,1-.24-.76h0a10.11,10.11,0,0,0,1-.64,7.73,7.73,0,0,0,.83-.75,7.44,7.44,0,0,0,1.29-1.88h0a.37.37,0,0,1,.71.16Z" transform="translate(-201.27 -159.65)"/><path class="cls-2" d="M412.85,239.27a4.53,4.53,0,0,1-.72,2.71,4.72,4.72,0,0,1-.93,1.08,3.89,3.89,0,0,1-1.22.73.41.41,0,0,1-.44-.67h0c.28-.3.56-.59.8-.89a11.53,11.53,0,0,0,.69-.94,11.36,11.36,0,0,0,1.08-2.12h0a.38.38,0,0,1,.72.11Z" transform="translate(-201.27 -159.65)"/><path class="cls-2" d="M418,243.26a4.9,4.9,0,0,1-.47,2.2,5.07,5.07,0,0,1-.57,1,4,4,0,0,1-.79.81.42.42,0,0,1-.64-.48h0c.12-.33.27-.64.41-.94l.43-.9c.3-.59.56-1.19.91-1.81h0a.38.38,0,0,1,.71.17Z" transform="translate(-201.27 -159.65)"/><path class="cls-2" d="M424.87,246.68a6.75,6.75,0,0,1-.81,2.36,7,7,0,0,1-.7,1,5.33,5.33,0,0,1-.89.89.41.41,0,0,1-.63-.49h0c.16-.37.35-.71.53-1.06s.38-.67.57-1c.4-.66.77-1.33,1.24-2a.38.38,0,0,1,.53-.09A.38.38,0,0,1,424.87,246.68Z" transform="translate(-201.27 -159.65)"/><path class="cls-2" d="M430.16,250.8a4,4,0,0,1-.88,3,4.25,4.25,0,0,1-1.21,1.06,3.51,3.51,0,0,1-1.52.49.41.41,0,0,1-.22-.76h0a7.07,7.07,0,0,0,1.06-.7,6.34,6.34,0,0,0,.88-.87,6,6,0,0,0,1.15-2.23h0a.37.37,0,0,1,.73,0Z" transform="translate(-201.27 -159.65)"/><path class="cls-2" d="M436.21,254.83a4.48,4.48,0,0,1-.39,2.12,4.64,4.64,0,0,1-.54.94,3.62,3.62,0,0,1-.76.78.42.42,0,0,1-.64-.47h0c.11-.32.25-.61.38-.9l.39-.86c.27-.57.52-1.14.84-1.74h0a.38.38,0,0,1,.52-.15A.38.38,0,0,1,436.21,254.83Z" transform="translate(-201.27 -159.65)"/><path class="cls-2" d="M452.89,270.39a6.36,6.36,0,0,1-1.8,2.84,6.59,6.59,0,0,1-1.38,1,5.5,5.5,0,0,1-1.59.58.41.41,0,0,1-.3-.74h0c.43-.28.85-.55,1.25-.84s.78-.6,1.15-.93a15.74,15.74,0,0,0,2-2.22h0a.37.37,0,0,1,.65.33Z" transform="translate(-201.27 -159.65)"/><path class="cls-2" d="M456.46,276a5.59,5.59,0,0,1-1.75,2,5.79,5.79,0,0,1-1.18.67,4.66,4.66,0,0,1-1.3.36.41.41,0,0,1-.28-.75h0c.34-.24.69-.44,1-.66s.66-.43,1-.66c.65-.45,1.26-.94,1.92-1.45h0a.38.38,0,0,1,.57.46Z" transform="translate(-201.27 -159.65)"/><path class="cls-2" d="M461.79,281.58a7.25,7.25,0,0,1-2.25,2.51,7.5,7.5,0,0,1-1.49.82,6.2,6.2,0,0,1-1.64.44.41.41,0,0,1-.24-.76h0c.46-.26.91-.49,1.35-.75s.87-.52,1.28-.81a24,24,0,0,0,2.4-1.9h0a.37.37,0,0,1,.58.45Z" transform="translate(-201.27 -159.65)"/><path class="cls-2" d="M466.3,288.07a8.58,8.58,0,0,1-2.58,2.47,8.85,8.85,0,0,1-1.61.8,7.29,7.29,0,0,1-1.74.44.41.41,0,0,1-.45-.36.41.41,0,0,1,.22-.41c.5-.26,1-.5,1.48-.76s1-.52,1.42-.81c.94-.56,1.82-1.2,2.72-1.88a.37.37,0,0,1,.52.07A.38.38,0,0,1,466.3,288.07Z" transform="translate(-201.27 -159.65)"/><path class="cls-2" d="M469.65,295.15a.56.56,0,0,1,.59.32.87.87,0,0,1,.06.45,1.19,1.19,0,0,1-.28.67,8.73,8.73,0,0,1-.66.69,7.29,7.29,0,0,1-1.57,1.1,7.12,7.12,0,0,1-1.8.65,6.17,6.17,0,0,1-1.9.13.41.41,0,0,1-.06-.8h0c.56-.15,1.11-.29,1.63-.48a12.75,12.75,0,0,0,3-1.49c.24-.15.46-.33.68-.5,0,0,.09-.06.12-.12s0,0,0,0,.22.15.23.11a.37.37,0,0,1-.06-.73Z" transform="translate(-201.27 -159.65)"/><path class="cls-2" d="M471.91,304.31a10.72,10.72,0,0,1-2.44,1.56,11.12,11.12,0,0,1-1.35.54,8.15,8.15,0,0,1-1.41.35.41.41,0,0,1-.28-.75,14.13,14.13,0,0,1,1.24-.69c.41-.22.84-.41,1.26-.61a24.76,24.76,0,0,1,2.62-1,.37.37,0,0,1,.36.64Z" transform="translate(-201.27 -159.65)"/><path class="cls-2" d="M471.43,312a5.06,5.06,0,0,1-2.18,1.55,5.25,5.25,0,0,1-1.32.32,4.26,4.26,0,0,1-1.35-.05.41.41,0,0,1,0-.8h0l1.14-.32c.37-.11.74-.22,1.1-.35a23.4,23.4,0,0,0,2.16-.91h0a.38.38,0,0,1,.45.57Z" transform="translate(-201.27 -159.65)"/><path class="cls-2" d="M470.09,321.14a3.9,3.9,0,0,1-2.18,1.3,4.07,4.07,0,0,1-1.29.09,3.33,3.33,0,0,1-1.24-.34.41.41,0,0,1,.17-.78h0c.37,0,.72,0,1.06-.07s.68-.08,1-.15a10.9,10.9,0,0,0,2-.63h0a.38.38,0,0,1,.44.58Z" transform="translate(-201.27 -159.65)"/><path class="cls-6" d="M451.94,328.81a17.62,17.62,0,0,1,1.85.31,10.58,10.58,0,0,1,1.78.49l.1,0a.82.82,0,0,1,.17,1.44,3.21,3.21,0,0,1-2.61.37,3.33,3.33,0,0,1-2.13-1.55.76.76,0,0,1,.74-1.11Z" transform="translate(-201.27 -159.65)"/><path class="cls-6" d="M453.49,334.49c.61.18,1,.32,1.42.47a10.73,10.73,0,0,1,1.35.56l.19.09a.81.81,0,0,1,.37,1.09.83.83,0,0,1-.24.29,2.61,2.61,0,0,1-2.55.22,2.67,2.67,0,0,1-1.67-1.92.75.75,0,0,1,1-.84Z" transform="translate(-201.27 -159.65)"/><path class="cls-6" d="M443.8,332.87a3.61,3.61,0,0,1,1.91.11,3.25,3.25,0,0,1,1.6,1,.89.89,0,0,1-.13,1.25.9.9,0,0,1-.36.18,3.25,3.25,0,0,1-1.89-.17,3.61,3.61,0,0,1-1.58-1.09.82.82,0,0,1,.12-1.15A.83.83,0,0,1,443.8,332.87Z" transform="translate(-201.27 -159.65)"/><path class="cls-6" d="M447.65,322.43a3.79,3.79,0,0,1,1.7.36,3.27,3.27,0,0,1,1.35,1.05l0,0a.88.88,0,0,1-.19,1.24.9.9,0,0,1-.33.15,2.81,2.81,0,0,1-1.91-.3,3,3,0,0,1-1.39-1.37.81.81,0,0,1,.7-1.16Z" transform="translate(-201.27 -159.65)"/><path class="cls-6" d="M453.55,319.41a11.4,11.4,0,0,1,2.07.33,8.61,8.61,0,0,1,2,.67l.06,0a.82.82,0,0,1,0,1.47,3.69,3.69,0,0,1-2.63.16,3.86,3.86,0,0,1-2.18-1.49.76.76,0,0,1,.67-1.18Z" transform="translate(-201.27 -159.65)"/><path class="cls-6" d="M449.24,312.69a4.36,4.36,0,0,1,2.5.11,4.09,4.09,0,0,1,2.07,1.4.83.83,0,0,1-.67,1.33h0a6.24,6.24,0,0,1-2.14-.44,7.34,7.34,0,0,1-2-1l0,0a.77.77,0,0,1,.26-1.34Z" transform="translate(-201.27 -159.65)"/></svg>