<svg width="202" height="212" fill="none" xmlns="http://www.w3.org/2000/svg"><path d="M128.825 211.47c39.946 0 72.33-4.625 72.33-10.33s-32.384-10.33-72.33-10.33c-39.947 0-72.33 4.625-72.33 10.33s32.383 10.33 72.33 10.33zM170.115 49.82l-.34-.54-.32.2-1.72-.9c0-.17-.08-.33-.11-.5l-.63.11-.63.11c.194 1.08.482 2.14.86 3.17l.27.74 3-1.85-.38-.54zM164.725 47.28l-2.18-1v-.33h-1.28a7.84 7.84 0 001 3.42l.33.59.58-.36c.86-.54 1.76-1 2.67-1.51l-.58-1.14-.54.33zM160.205 45.08l-.28-.58-.48.26-2.18-.92c0-.14-.06-.27-.08-.41l-1.27.22a20.49 20.49 0 00.89 3.42l.3.85.7-.56a14.741 14.741 0 012.68-1.69l-.28-.58v-.01zM155.295 42.88l-.26-.58-.53.27-2.5-1-.21-.66-.38-.64-.67.34.36.52-.53.17 1.42 4.43.72-.56a14.492 14.492 0 012.85-1.71l-.26-.58h-.01zM149.235 40.19l-2.17-.9c0-.21-.1-.42-.13-.64l-.11-.72-1 .28.16.58h-.31c.202 1.145.496 2.272.88 3.37l.24.76.69-.4c.92-.53 1.86-1 2.81-1.48l-.55-1.16-.51.31zM100.495 80.69a19.519 19.519 0 00-12.77 12.23.81.81 0 01-1.47.17c-1.69-2.93-3.7-5.74-6.76-7a10.77 10.77 0 00-8.84.54 13.73 13.73 0 00-7.32 11.26.78.78 0 01-1.4.46 21.58 21.58 0 00-12.26-7.22c-10-2.22-20.61 7.48-23.21 16.68a.68.68 0 01-1.29.08c-1.4-3.31-3.55-6.28-8-5.79-7 .76-12.26 8.58-14.72 14.49v.06a1.281 1.281 0 01-2.45-.43 32 32 0 013.53-15.16c3.23-6.48 8.18-12 13.46-16.91a136.57 136.57 0 0136.43-24.5 4.52 4.52 0 011.88-.54 4.73 4.73 0 012.6 1.18c11.22 8.16 26.72 14.66 42.55 15.24-.1-.04 4.53 3.82.04 5.16zM124.904 104.28l-.06-.6-.69.06-9.77-7 .05-.22-.58-.16-.58-.16a35.252 35.252 0 00-1.25 8.14v.53l.52.09a32.42 32.42 0 006.71.38c1.92-.07 3.83-.24 5.72-.42l-.06-.6-.01-.04zM135.585 114.64v-.01l-.05-.6-.57.05-6.58-5.78.06-.38-1.19-.2-1.37 8.42 9.76-.9-.06-.6zM144.725 128.19l-.11-.59-.11-.59h-.26l-5.13-7.66.15-.34-.55-.25-.55-.25-4 8.71.63.22a19.53 19.53 0 009.95.74l-.02.01zM149.625 143.09l.09-.6-.31-.06-3.12-9.36.15-.1-.7-1a70.275 70.275 0 01-7.59 4.66l-1 .5 7.4 4.43a13.864 13.864 0 004.94 2.12l.09-.6.05.01zM149.644 149.18l-.06-.6-.06-.6-12.71 1.3 1.18.93c.5.39 2 2.08 3.6 3.87a84.027 84.027 0 005.77 6.12l.39-.46.39-.46-.28-.25 1.61-9.83.17-.02zM85.725 121.35v.39l-7.1 6h-.66v1.2c3.102.115 6.194.416 9.26.9l.8.13-1.1-8.71-1.2.09zM81.064 138.83l.5-.55-7.26-4.34-.62 1 .21.13-1.4 9.19-.43.27.31.52.31.52a36.618 36.618 0 008.38-6.74zM82.584 154.54l.4-1-1 .15a15.804 15.804 0 01-8-.89l-.44 1.13c.18.07.37.11.55.18l3.41 7.68-.21.34.51.33.51.33a50.676 50.676 0 004.27-8.25zM118.205 7.88l-2-1 .58 2.12c.88 3.19 1.86 6.41 2.91 9.56l1.9-.63-.09-.29 4.6-3.25.38.22.52-.85.52-.85c-3-1.8-6.15-3.5-9.32-5.03zM133.294 0l-.76 2.06c-1.15 3.11-2.24 6.3-3.22 9.46l1 .3 1 .3.09-.29h5.64l.18.4 1.84-.78c-1.38-3.25-2.93-6.47-4.62-9.57L133.294 0zM149.634 5.57l-.15-2.19-1.55 1.55c-2.34 2.35-4.65 4.79-6.87 7.26l.74.67.74.67.2-.22 5.11 2.39v.44l2 .06c.1-3.54.03-7.12-.22-10.63z" fill="#2A4365"/><path d="M107.555 201.78c-32.1-8.32-50.14-52.28-39.05-71.37 8.27-14.26 19.22-13.67 24.22-12.46a.654.654 0 01.51.635.653.653 0 01-.51.635c-13.89 2.84-18.51 18.91-18.51 18.91-5.07 20.74 18.46 57.64 53.33 42.27 34.87-15.37 21.19-56.93-3.69-74.39-24.88-17.46-34.21-40.13-34.21-40.13s-7.47-16.21 4.26-34.6 25.25-13.61 25.25-13.61 12.06-16.78 34.47 1.27c0 0 7.13 5.57 10.17 8.19 0 0 4.41-1.56 6.82 1.34 2.41 2.9-.14 6.1-.14 6.1s8.73 11.25-.09 16.08l-30.54-14.48 16.88 20.12a.481.481 0 010 .62c-1 1.21-5.43 4.91-17-4.64 0 0-21.35-15.89-25-24.49 0 0-6.6-3.77-10.58 11.2-3.98 14.97 13.76 31.32 27.5 40.66 12.8 8.7 49.34 30.22 57.67 59.62 8.33 29.4-30.27 75.86-81.76 62.52z" fill="#3182CE"/><path d="M169.955 187.43c22.27-23.29 2.84-70.27-34-94-36.84-23.73-32.151-51-32.151-51l.53-3.45c-4 15 13.76 31.32 27.5 40.66 12.8 8.7 49.341 30.22 57.671 59.62 4 14.2-2.92 32.37-17 45.87" fill="#63B3ED"/><path d="M168.345 58.35c4.13-1 8.89.54 11 4.22 1.71 2.94 1.77 6.7 3.87 9.38a7.675 7.675 0 006.56 2.84.288.288 0 01.281.16c.025.05.035.109.028.166a.286.286 0 01-.069.154 9.161 9.161 0 01-6.11 2.87 4.867 4.867 0 002.82 3.24c1.32.68 2.79 1.08 4.05 1.86 3 1.84 4.32 5.42 5.2 8.8.704 2.174.866 4.489.47 6.74a.361.361 0 01-.605.177.36.36 0 01-.105-.227 9.544 9.544 0 00-5.14-7.64c-3-1.44-6.51-1.24-9.48-2.65-3.93-1.87-6-6.11-7.88-10.05a10.06 10.06 0 00.49 8.14.32.32 0 01-.49.38 10.997 10.997 0 01-3.67-6.4c-.28-1.63-.25-3.46-1.33-4.72-.89-1-2.32-1.41-3.52-2.06a8.087 8.087 0 01-2.25-11.77s1.26-2.45 5.88-3.61z" fill="#3182CE"/><path d="M168.504 62.27a4.881 4.881 0 015.3 2.19c.79 1.45.77 3.28 1.76 4.6a3.727 3.727 0 003.51 1.42 4.43 4.43 0 01-3.25 1.59 2.366 2.366 0 001.33 1.61c.63.35 1.34.56 1.94 1 1.42.93 2 2.69 2.41 4.34.32 1.39.53 3-.25 4.15a4.603 4.603 0 00-.446-2.706 4.602 4.602 0 00-1.904-1.974c-1.42-.74-3.14-.68-4.57-1.41-1.88-1-2.86-3-3.69-5a4.877 4.877 0 00.54 4.63 5.345 5.345 0 01-2.34-3.65 4.553 4.553 0 00-.58-2.31 5.477 5.477 0 00-1.68-1 3.939 3.939 0 01-1.739-2.662 3.934 3.934 0 01.799-3.078 4.247 4.247 0 012.86-1.74z" fill="#63B3ED"/><path d="M170.394 188.76c.22-.83-1.53-2.12-2.13-2.66a7.535 7.535 0 00-2-1.36c-4-1.76-9 1.56-10.61 5.19a7.773 7.773 0 00.94 7.84l.5-.41 12.94-8.21a.666.666 0 00.36-.39zM136.995 193.41a8.784 8.784 0 00-5.83-1.86c-3.21.26-4.52 3.23-4.65 6.1a13.843 13.843 0 00.56 4.51c.171.674.423 1.326.75 1.94.1.17.28.72.46.81.61.28.3-.19.77-.22l11.29-.78h.64c0-3.43-1.07-7.88-3.72-10.26l-.27-.24zM141.725 168.53l-.26.59-12.36 10.33-.62.16a9.68 9.68 0 007.59 7 8.861 8.861 0 001.76.11 9.408 9.408 0 008.145-5.043 9.419 9.419 0 00-.495-9.567 13.184 13.184 0 00-3.76-3.58zM120.185 182.64l-12.101 1.17-.629-.13a7.771 7.771 0 00.06 3.39 7.576 7.576 0 007.2 5.74h.19a7.053 7.053 0 006.66-6.06 8.592 8.592 0 00-.84-4.4l-.54.29zM98.115 187.35a5.177 5.177 0 00-1.95-.17 5.54 5.54 0 00-1.57.48c-2.44 1.11-4.81 3.63-4.59 6.73h.64l10.999 5.88.48.43a8.129 8.129 0 00-4-13.3l-.01-.05zM93.615 178.71l-.59-.26-12.3-12.5-.42-.49c-2.61 2.22-3.94 6.71-2.89 9.79a10.853 10.853 0 006.9 6.54c1.11.374 2.278.55 3.45.52a7.69 7.69 0 001.72-.25 6.124 6.124 0 004.13-3.35zM69.815 154.42a5.117 5.117 0 00-5.55.17l.37.52 4.62 12 .25.59.25.59a6.771 6.771 0 004.06-6.2 10.24 10.24 0 00-1.27-4.38 8.081 8.081 0 00-2.73-3.29zM120.925 72.62a2.72 2.72 0 01-.42 2.46 2.93 2.93 0 01-1 .86 2.351 2.351 0 01-1.25.32.411.411 0 01-.357-.566.408.408 0 01.167-.194c.262-.15.51-.323.74-.52a4.012 4.012 0 001.32-2.25.379.379 0 01.45-.29.381.381 0 01.35.18zM125.524 76.12a3.92 3.92 0 01-1.07 2.6 4.11 4.11 0 01-1.14.88c-.423.229-.89.365-1.37.4a.411.411 0 01-.419-.285.411.411 0 01.179-.475c.346-.194.68-.407 1-.64.295-.23.572-.48.83-.75a7.42 7.42 0 001.29-1.88.37.37 0 01.71.16l-.01-.01zM129.575 79.62c.052.957-.2 1.905-.72 2.71a4.73 4.73 0 01-.93 1.08 3.898 3.898 0 01-1.22.73.41.41 0 01-.44-.67c.28-.3.56-.59.8-.89.245-.302.476-.615.69-.94.433-.667.795-1.377 1.08-2.12a.381.381 0 01.614-.105.388.388 0 01.106.215l.02-.01zM134.725 83.61a4.903 4.903 0 01-.47 2.2c-.152.354-.343.69-.57 1a4.02 4.02 0 01-.79.81.421.421 0 01-.64-.48c.12-.33.27-.64.41-.94l.43-.9c.3-.59.56-1.19.91-1.81a.375.375 0 01.418-.182.38.38 0 01.292.352l.01-.05zM141.595 87.03a6.756 6.756 0 01-.81 2.36 7.017 7.017 0 01-.7 1c-.261.33-.56.63-.89.89a.412.412 0 01-.656-.222.407.407 0 01.026-.268c.16-.37.35-.71.53-1.06.18-.35.38-.67.57-1 .4-.66.77-1.33 1.24-2a.37.37 0 01.246-.155.378.378 0 01.284.065.385.385 0 01.16.39zM146.884 91.15a3.99 3.99 0 01-.88 3 4.234 4.234 0 01-1.21 1.06 3.507 3.507 0 01-1.52.49.41.41 0 01-.22-.76 7.013 7.013 0 001.06-.7 5.975 5.975 0 002.03-3.1.373.373 0 01.365-.31.372.372 0 01.365.31l.01.01zM152.935 95.18a4.493 4.493 0 01-.39 2.12 4.662 4.662 0 01-.54.94c-.213.297-.469.56-.76.78a.422.422 0 01-.638-.214.422.422 0 01-.002-.256c.11-.32.25-.61.38-.9l.39-.86c.27-.57.52-1.14.84-1.74a.38.38 0 01.52-.15.379.379 0 01.2.28zM169.615 110.74a6.364 6.364 0 01-1.8 2.84 6.585 6.585 0 01-1.38 1 5.511 5.511 0 01-1.59.58.417.417 0 01-.266-.048.41.41 0 01-.034-.692c.43-.28.85-.55 1.25-.84.4-.29.78-.6 1.15-.93a15.78 15.78 0 002-2.22.369.369 0 01.636.077c.034.08.039.17.014.253l.02-.02zM173.185 116.35a5.59 5.59 0 01-1.75 2 5.78 5.78 0 01-1.18.67 4.672 4.672 0 01-1.3.36.408.408 0 01-.441-.263.41.41 0 01.161-.487c.34-.24.69-.44 1-.66.31-.22.66-.43 1-.66.65-.45 1.26-.94 1.92-1.45a.384.384 0 01.46.013.383.383 0 01.11.447l.02.03zM178.514 121.93a7.24 7.24 0 01-2.25 2.51 7.505 7.505 0 01-1.49.82 6.21 6.21 0 01-1.64.44.412.412 0 01-.419-.286.41.41 0 01.179-.474c.46-.26.91-.49 1.35-.75.44-.26.87-.52 1.28-.81a23.89 23.89 0 002.4-1.9.367.367 0 01.239-.107.369.369 0 01.341.557h.01zM183.025 128.42a8.597 8.597 0 01-2.58 2.47 8.847 8.847 0 01-1.61.8 7.31 7.31 0 01-1.74.44.408.408 0 01-.404-.599.405.405 0 01.174-.171c.5-.26 1-.5 1.48-.76s1-.52 1.42-.81c.94-.56 1.82-1.2 2.72-1.88a.36.36 0 01.274-.073.37.37 0 01.246.143.387.387 0 01.08.217.388.388 0 01-.06.223zM186.374 135.5a.564.564 0 01.59.32c.06.142.081.297.06.45a1.188 1.188 0 01-.28.67 7.27 7.27 0 01-4.03 2.44 6.187 6.187 0 01-1.9.13.407.407 0 01-.354-.376.414.414 0 01.294-.424c.56-.15 1.11-.29 1.63-.48a12.688 12.688 0 003-1.49c.24-.15.46-.33.68-.5 0 0 .09-.06.12-.12 0 0 .22.15.23.11a.371.371 0 01-.276-.588.373.373 0 01.216-.142h.02zM188.635 144.66a10.714 10.714 0 01-2.44 1.56c-.438.209-.889.39-1.35.54a8.164 8.164 0 01-1.41.35.408.408 0 01-.441-.263.41.41 0 01.161-.487c.401-.251.815-.481 1.24-.69.41-.22.84-.41 1.26-.61a24.658 24.658 0 012.62-1 .367.367 0 01.462.161.371.371 0 01-.102.479v-.04zM188.154 152.35a5.055 5.055 0 01-2.18 1.55 5.26 5.26 0 01-1.32.32 4.28 4.28 0 01-1.35-.05.408.408 0 01-.32-.4.412.412 0 01.32-.4l1.14-.32c.37-.11.74-.22 1.1-.35a23.376 23.376 0 002.16-.91.38.38 0 01.45.57v-.01zM186.815 161.49a3.904 3.904 0 01-2.18 1.3 4.057 4.057 0 01-1.29.09 3.328 3.328 0 01-1.24-.34.411.411 0 01-.084-.687.413.413 0 01.254-.093c.37 0 .72 0 1.06-.07.34-.07.68-.08 1-.15a10.877 10.877 0 002-.63.378.378 0 01.513.353.386.386 0 01-.073.227h.04z" fill="#2A4365"/><path d="M168.665 169.16c.621.07 1.239.174 1.85.31a10.57 10.57 0 011.78.49h.1a.817.817 0 01.451 1.103.814.814 0 01-.281.337 3.214 3.214 0 01-2.61.37 3.322 3.322 0 01-2.13-1.55.757.757 0 01.344-1.038.762.762 0 01.396-.072l.1.05zM170.215 174.84c.61.18 1 .32 1.42.47.462.156.913.343 1.35.56l.19.09a.808.808 0 01.37 1.09.832.832 0 01-.24.29 2.61 2.61 0 01-2.55.22 2.67 2.67 0 01-1.67-1.92.75.75 0 011-.84l.13.04zM160.525 173.22a3.606 3.606 0 011.91.11c.62.168 1.177.516 1.6 1a.891.891 0 01-.49 1.43 3.25 3.25 0 01-1.89-.17 3.604 3.604 0 01-1.58-1.09.823.823 0 01-.178-.6.823.823 0 01.298-.55.822.822 0 01.33-.13zM164.375 162.78a3.794 3.794 0 011.7.36 3.268 3.268 0 011.35 1.05.876.876 0 01.164.66.873.873 0 01-.354.58.899.899 0 01-.33.15 2.81 2.81 0 01-1.91-.3 2.997 2.997 0 01-1.39-1.37.805.805 0 01.036-.769.813.813 0 01.664-.391l.07.03zM170.275 159.76c.699.046 1.392.157 2.07.33a8.56 8.56 0 012 .67h.06a.822.822 0 01.333 1.168.83.83 0 01-.333.302 3.692 3.692 0 01-2.63.16 3.864 3.864 0 01-2.18-1.49.76.76 0 01.67-1.18l.01.04zM165.965 153.04a4.356 4.356 0 012.5.11 4.09 4.09 0 012.07 1.4.834.834 0 01.078.873.82.82 0 01-.748.457 6.25 6.25 0 01-2.14-.44 7.336 7.336 0 01-2-1 .776.776 0 01-.276-.749.765.765 0 01.536-.591l-.02-.06z" fill="#231C46"/></svg>