<?xml version="1.0" standalone="no"?>
<!DOCTYPE svg PUBLIC "-//W3C//DTD SVG 20010904//EN"
 "http://www.w3.org/TR/2001/REC-SVG-20010904/DTD/svg10.dtd">
<svg version="1.0" xmlns="http://www.w3.org/2000/svg"
 width="300.000000pt" height="300.000000pt" viewBox="0 0 300.000000 300.000000"
 preserveAspectRatio="xMidYMid meet">
<metadata>
Created by potrace 1.11, written by Peter Selinger 2001-2013
</metadata>
<g transform="translate(0.000000,300.000000) scale(0.100000,-0.100000)"
fill="#000000" stroke="none">
<path d="M1946 2958 c-8 -18 -20 -52 -26 -75 -18 -59 -42 -62 -130 -18 l-71
36 7 -28 c4 -16 13 -45 21 -67 7 -21 13 -41 13 -45 0 -3 -29 -7 -65 -7 -83 -2
-151 -36 -226 -114 -170 -178 -207 -450 -88 -652 28 -48 28 -48 6 -48 -12 0
-40 5 -62 11 -22 5 -50 12 -63 15 -78 16 -242 93 -334 155 -31 22 -64 39 -73
39 -25 0 -182 -83 -280 -147 -301 -199 -479 -411 -501 -598 -12 -99 13 -108
56 -21 42 88 129 156 199 156 32 0 91 -43 91 -65 0 -34 20 -20 45 31 55 113
168 194 270 194 59 0 134 -32 188 -80 21 -18 39 -31 41 -29 2 2 6 19 9 37 14
88 108 160 192 148 41 -7 80 -36 125 -96 l18 -25 12 30 c17 45 56 91 104 124
l44 30 36 -47 c21 -26 66 -77 102 -113 l64 -66 -6 -57 -6 -56 28 -1 c16 -1 52
-2 79 -3 32 -1 60 -8 78 -21 26 -19 27 -23 21 -76 l-6 -57 58 5 c53 4 59 2 81
-23 24 -29 24 -43 -3 -96 -8 -15 -14 -32 -14 -37 0 -10 55 -24 98 -25 14 -1
28 -11 36 -28 14 -27 14 -28 -41 -61 l-55 -34 51 -31 c28 -18 55 -32 59 -32
18 -1 40 -28 46 -57 7 -31 7 -32 -36 -38 -24 -3 -60 -7 -80 -8 -21 -1 -38 -4
-38 -7 1 -3 32 -38 69 -79 l69 -74 -15 -36 c-22 -53 -39 -72 -133 -147 -47
-38 -94 -76 -104 -86 -37 -34 -135 -55 -286 -62 -51 -3 -117 12 -175 40 -37
17 -231 201 -252 239 -7 12 -1 33 21 75 17 32 28 61 26 64 -3 3 -29 6 -57 7
-56 3 -50 -6 -69 95 -3 15 6 29 29 47 53 41 77 64 77 73 0 5 -18 19 -40 32
l-40 23 22 40 23 41 68 -7 c63 -6 68 -5 63 12 -2 10 -6 38 -8 62 -2 44 -2 45
40 59 44 14 55 31 22 33 -11 1 -30 2 -42 3 -100 8 -218 -67 -283 -178 -44 -75
-61 -208 -40 -307 4 -18 3 -29 -4 -29 -6 0 -11 -7 -11 -17 0 -24 62 -176 76
-188 7 -5 25 -32 40 -60 43 -79 107 -165 169 -227 32 -32 54 -58 49 -58 -5 0
-70 -9 -144 -20 -216 -30 -330 -74 -304 -117 18 -29 148 -70 274 -87 19 -2 58
-7 85 -11 28 -3 64 -8 80 -10 104 -13 281 -20 570 -20 374 0 565 10 755 41
188 30 280 63 280 98 0 39 -69 67 -234 95 -61 11 -145 22 -186 26 -41 4 -76 8
-78 10 -2 1 13 13 32 25 20 12 35 25 33 30 -1 4 21 32 49 61 152 162 229 326
238 507 5 100 -59 267 -152 395 -121 167 -290 315 -577 507 -331 221 -479 386
-501 557 -13 109 58 253 125 253 20 0 32 -11 51 -41 50 -82 327 -323 428 -374
54 -27 107 -32 134 -12 15 12 3 28 -103 155 -111 132 -117 142 -83 127 20 -8
38 -15 39 -15 1 0 5 -14 9 -30 6 -30 6 -31 35 -16 l29 15 6 -34 c7 -34 7 -35
31 -19 28 18 45 12 45 -17 0 -21 12 -24 41 -9 16 9 21 7 29 -15 10 -26 29 -32
46 -15 8 8 15 6 24 -5 7 -8 9 -15 5 -15 -4 0 -2 -6 4 -14 11 -13 17 -12 48 6
64 38 72 106 23 193 -15 27 -17 41 -10 61 18 46 -19 84 -81 84 -30 0 -75 30
-182 122 -18 15 -34 28 -37 28 -3 0 -5 33 -5 73 1 114 1 114 -64 49 -31 -32
-63 -56 -72 -54 -8 1 -31 35 -50 73 -18 39 -37 73 -42 76 -4 2 -14 -11 -21
-29z"/>
<path d="M2439 2168 c-40 -15 -77 -58 -84 -98 -7 -42 18 -98 51 -115 10 -6 27
-15 36 -21 10 -5 25 -36 33 -69 9 -33 24 -68 34 -78 17 -18 18 -16 13 37 -2
31 -2 56 1 56 3 0 17 -20 31 -44 32 -55 76 -92 118 -101 78 -15 125 -37 146
-65 12 -16 22 -36 22 -44 0 -8 5 -18 10 -21 15 -9 12 41 -6 105 -19 67 -50
105 -105 127 -22 8 -44 24 -49 33 -8 16 -4 20 24 30 19 6 40 18 46 26 10 11 9
14 -9 14 -56 0 -90 37 -121 133 -14 45 -64 97 -94 98 -12 1 -33 2 -47 3 -14 2
-36 -1 -50 -6z"/>
</g>
</svg>
